<svg width="3023" height="2052" viewBox="0 0 3023 2052" fill="none" xmlns="http://www.w3.org/2000/svg">
<g clip-path="url(#clip0_515_42)">
<path d="M1164.33 99.1889L1175.35 44.0945L1248.81 25.7297L1303.9 18.3838L1366.34 11.0379L1443.47 7.36491L1505.91 3.69196H1568.35L1663.85 11.0379L1759.35 25.7297L1836.48 40.4215L1847.5 51.4404L1854.84 95.5159L1865.86 110.208L1880.55 132.246L1909.94 168.975L1946.67 209.378L1965.03 224.069L1983.4 220.397L2016.45 235.088L2130.32 286.51L2218.47 326.912L2339.67 385.68L2479.25 451.793L2582.09 499.541L2593.11 543.617L2607.8 602.384L2629.84 697.881L2648.2 771.34C2659.22 821.537 2681.26 922.666 2681.26 925.605C2681.26 928.543 2703.3 1024.77 2714.32 1072.52L2754.72 1248.83L2787.78 1406.76L2831.85 1594.08L2868.58 1766.71L2901.64 1913.63L2905.31 1950.36L2912.66 2031.17L2923.67 2174.41L2934.69 2317.66L2942.04 2442.54L2953.06 2552.73L2960.4 2659.24L2971.42 2795.14L2978.77 2905.33L2986.12 3011.85L2993.46 3114.69L2997.13 3188.15L3008.15 3305.68V3353.43L3015.5 3430.56L3019.17 3470.97L3022.84 3544.42V3562.79L3019.17 3566.46L2967.75 3573.81L2920 3581.15L2872.25 3588.5L2831.85 3592.17L2769.41 3595.85H2729.01H2681.26L2644.53 3592.17L2618.82 3588.5L2585.76 3581.15L2567.4 3570.14L2556.38 3559.12L2552.71 3544.42L2549.03 3489.33L2538.01 3364.45L2519.65 3147.74L2501.28 2949.4L2482.92 2751.07L2464.56 2560.07L2453.54 2442.54L2442.52 2343.37L2435.17 2255.22L2424.15 2152.37L2398.44 1898.94L2387.42 1814.46L2383.75 1807.11L2372.73 1869.55L2365.39 1935.67L2358.04 2001.78L2350.69 2082.59L2347.02 2145.03V2185.43V2214.81L2361.71 2211.14L2365.39 2273.58V2328.67V2358.06L2361.71 2369.08L2365.39 2391.12L2372.73 2409.48L2380.08 2413.15L2394.77 2409.48L2402.11 2453.56L2409.46 2530.69L2424.15 2648.22L2435.17 2751.07L2438.84 2809.83L2427.83 2820.85L2424.15 2835.54L2427.83 2938.39V3081.63L2431.5 3228.55L2435.17 3353.43V3459.95V3489.33L2438.84 3537.08L2442.52 3588.5L2446.19 3632.58V3680.32L2442.52 3728.07L2435.17 3783.17L2424.15 3830.92L2416.81 3867.64L2405.79 3904.37L2394.77 3922.74L2380.08 3933.76L2336 3955.8L2269.89 3977.83L2200.1 3999.87L2126.64 4018.24L2023.8 4040.27L1935.65 4058.64L1807.1 4077L1711.6 4088.02L1634.47 4095.37L1583.05 4099.04L1520.6 4102.71L1494.89 4099.04L1491.22 4088.02H1480.2L1414.09 4080.68L1355.32 4077L1248.81 4065.98L1127.6 4051.29L1039.45 4040.27L940.277 4025.58L863.145 4010.89L797.032 3996.2L738.265 3981.51L664.805 3952.12L631.749 3926.41L609.711 3874.99L595.019 3830.92L587.673 3794.19L576.654 3731.75V3698.69V3639.92L580.327 3603.19V3507.69L584 3371.8L587.673 3316.7V3173.46L591.346 3037.56L595.019 2879.62V2839.22L591.346 2824.52L580.327 2813.51V2798.81L587.673 2718.01L591.346 2681.28L606.038 2549.05L613.384 2479.27L624.403 2413.15L642.768 2405.81L646.441 2391.12L650.114 2347.04V2295.62L653.787 2233.18L657.46 2218.49H661.133L664.805 2211.14V2137.68L661.133 2071.57L657.46 1998.11L653.787 1954.03L639.095 1876.9L628.076 1840.17L613.384 1979.74L587.673 2244.2L569.309 2471.92L550.944 2670.26L536.252 2828.2L528.906 2920.02L517.887 3026.54L499.522 3243.24L484.831 3401.18L470.139 3526.06L462.793 3555.44L444.428 3573.81L415.044 3584.83L370.969 3592.17H312.201H235.069L146.918 3584.83L88.151 3581.15L36.7296 3573.81L0 3566.46L7.34592 3463.62L29.3837 3169.78L47.7485 2920.02L62.4403 2721.68L69.7862 2593.13L88.151 2347.04L106.516 2119.32L113.862 2001.78L121.208 1898.94L146.918 1774.06L183.648 1608.77L235.069 1392.07L279.145 1179.04L315.874 1006.41L352.604 852.145L385.661 705.227L433.409 495.868L550.944 437.101L730.919 352.623L888.856 279.164L1028.43 220.397L1039.45 216.724L1046.79 227.742L1072.5 213.051L1164.33 99.1889Z" fill="#4C4636"/>
<path d="M1164.33 99.189L1175.35 44.0946L1248.81 25.7298L1333.28 14.7109L1447.15 3.69205H1535.3L1616.1 7.36501L1663.85 11.038L1752 25.7298L1840.15 44.0946L1843.83 51.4405L1854.84 95.516L1546.32 1079.87L1542.64 1083.54L1164.33 99.189Z" fill="#B6A18C"/>
<path d="M1634.47 536.271L1527.95 348.95L1428.78 528.925L1472.86 606.057L1406.74 723.592L1546.31 1083.54L1652.83 738.284L1590.39 606.057L1634.47 536.271Z" fill="#4C4734"/>
<path d="M1098.21 183.667L1164.33 99.189L1248.81 312.221L1336.96 539.944L1406.74 727.265L1461.84 866.837L1527.95 1043.14L1542.64 1087.21L1696.91 595.038L1854.84 99.189L1898.92 154.283L1942.99 209.378L1954.01 231.416L1976.05 279.164L1990.74 315.894L2005.43 352.623L2031.15 418.736L2049.51 488.523L2056.86 525.252L2020.13 536.271L1968.71 539.944H1939.32L1920.96 547.29L1961.36 550.963L2034.82 558.309L2115.62 561.982L2163.37 569.328L2148.68 606.057L2119.3 653.806L2042.16 752.976L1946.67 859.491L1873.21 940.297L1744.65 1072.52L1649.16 1160.67L1549.99 1252.5L1487.55 1300.25H1480.2L1491.22 1263.52L1520.6 1168.02L1436.13 1109.25L1340.63 1035.79L1256.15 966.007L1134.94 859.491L1079.85 808.07L1046.79 775.013L999.044 727.265L969.661 694.208L932.931 650.133L910.893 617.076L892.528 584.02L888.855 565.655L932.931 561.982L1002.72 558.309H1090.87L1138.62 554.636L1076.18 543.617L1010.06 532.598L980.679 525.252V506.887L988.025 470.158L999.044 433.428L1021.08 356.296L1046.79 286.51L1068.83 216.724L1098.21 183.667Z" fill="#494635"/>
<path d="M1428.78 532.19L1472.86 605.65M1472.86 605.65H1590.39M1472.86 605.65L1406.74 726.857M1590.39 605.65L1652.83 741.549M1590.39 605.65L1634.47 535.863" stroke="black" stroke-width="7.34592"/>
<path d="M1527.95 348.543C1553.66 311.814 1851.17 46.5002 1840.15 43.6877C1494.89 -44.4402 1186.36 40.0147 1175.35 43.6877C1285.53 141.633 1509.58 330.178 1527.95 348.543ZM1527.95 348.543C1502.24 385.273 1436.13 521.172 1370.01 631.361M1527.95 348.543L1689.56 631.361" stroke="black" stroke-width="7.34592"/>
<path d="M1745.91 1399.01C1745.91 1391.66 1738.56 1399.01 1716.52 1362.28C1712.12 1354.93 1720.2 1141.9 1727.54 1141.9C1734.89 1141.9 2381.33 1138.23 2396.02 1138.23C2396.02 1215.36 2396.02 1372.56 2396.02 1384.32C2396.02 1399.01 2362.96 1398.56 2362.96 1413.7M2179.32 2010.98C2122 2011.32 2048.89 2011.1 1984.65 2010.2C1918.53 2009.26 1861.81 2007.6 1841.4 2005.05C1782.64 1997.7 1749.44 1961.89 1745.91 1938.93C1738.56 1891.19 1745.91 1406.35 1745.91 1399.01M1745.91 1399.01C1832.67 1413.47 1894.38 1400.6 1992 1426.75M2362.96 1413.7C2362.96 1450.43 2344.6 1931.59 2344.6 1953.63C2344.6 1983.01 2296.85 2005.05 2278.49 2008.72C2272.69 2009.88 2232.91 2010.67 2179.32 2010.98M1992 1426.75C2018.36 1433.81 2047.34 1443.72 2080.15 1457.78C2080.15 1457.78 2081.62 1459.14 2083.82 1457.78C2109.86 1441.65 2147.63 1431.39 2186.66 1424.88C2263.23 1412.09 2344.65 1413.7 2351.95 1413.7C2360.76 1413.7 2362.96 1413.7 2362.96 1413.7M2186.66 1424.88L2179.32 2010.98M1992 1426.75L1984.65 2010.2" stroke="black" stroke-width="7.34592"/>
<path d="M1270.84 1399.01C1270.84 1391.66 1278.19 1399.01 1300.23 1362.28C1304.64 1354.93 1296.55 1141.9 1289.21 1141.9C1281.86 1141.9 635.422 1138.23 620.73 1138.23C620.73 1215.36 620.73 1372.56 620.73 1384.32C620.73 1399.01 653.787 1398.56 653.787 1413.7M837.435 2010.98C894.75 2011.32 967.864 2011.1 1032.1 2010.2C1098.22 2009.26 1154.94 2007.6 1175.35 2005.05C1234.11 1997.7 1267.31 1961.89 1270.84 1938.93C1278.19 1891.19 1270.84 1406.35 1270.84 1399.01M1270.84 1399.01C1184.09 1413.47 1122.38 1400.6 1024.76 1426.75M653.787 1413.7C653.787 1450.43 672.152 1931.59 672.152 1953.63C672.152 1983.01 719.9 2005.05 738.265 2008.72C744.058 2009.88 783.84 2010.67 837.435 2010.98M1024.76 1426.75C998.392 1433.81 969.408 1443.72 936.605 1457.78C936.605 1457.78 935.132 1459.14 932.932 1457.78C906.888 1441.65 869.12 1431.39 830.089 1424.88C753.525 1412.09 672.104 1413.7 664.806 1413.7C655.991 1413.7 653.787 1413.7 653.787 1413.7M830.089 1424.88L837.435 2010.98M1024.76 1426.75L1032.1 2010.2" stroke="black" stroke-width="7.34592"/>
<path d="M1164.33 95.1082C1168 102.454 1535.3 1053.75 1546.32 1094.15" stroke="black" stroke-width="7.34592"/>
<path d="M1854.84 95.1082C1847.5 113.473 1450.82 1380.64 1450.82 1399.01C1450.82 1413.7 1472.86 3197.53 1483.87 4087.61" stroke="black" stroke-width="7.34592"/>
<path d="M1046.79 227.335C1043.12 227.335 1046.79 216.316 1035.77 216.316C1024.76 216.316 440.755 484.442 433.409 499.134C426.063 513.826 124.881 1872.82 121.208 1902.2C117.535 1931.59 7.34592 3499.94 0 3566.05C58.7673 3588.09 356.277 3599.11 404.025 3588.09C451.774 3577.07 455.447 3566.05 466.466 3544.02C477.485 3521.98 624.403 1828.74 628.076 1832.42M1046.79 227.335C1050.47 227.335 1061.49 219.989 1072.5 212.643M1046.79 227.335C1044.34 238.354 1045.06 247.013 1032.1 264.064C962.315 355.888 624.403 477.096 481.158 543.209M1072.5 212.643C1083.52 205.297 1160.65 106.127 1164.33 98.7813C1168 91.4354 1171.67 47.7679 1175.35 44.0949M1072.5 212.643C1040.67 294.672 980.68 471.872 980.68 524.844C980.68 532.19 1113.29 547.559 1153.31 554.228C1168 556.677 887.896 557.09 888.856 565.247C903.548 690.128 1373.69 1072.12 1516.93 1167.61M1968.71 223.662C1961.36 223.662 1948.8 214.777 1943 208.97C1928.3 194.278 1873.21 128.165 1858.52 102.454C1848.7 85.2808 1851.17 52.91 1840.15 44.0949M1943 208.97C1977.28 275.083 2042.16 422.002 2056.86 524.844C2058.5 536.343 1884.23 543.209 1913.61 546.882C1943 550.555 2163.93 563.755 2163.37 568.92C2152.35 671.763 1645.49 1193.32 1480.2 1303.51M1968.71 223.662C1976.05 223.662 1976.05 216.316 1987.07 219.989C1998.09 223.662 2571.07 491.788 2582.09 499.134C2593.11 506.48 2897.96 1898.53 2901.64 1913.22C2905.31 1927.91 3027.95 3565.1 3022.84 3566.05C2864.91 3595.44 2556.86 3621.03 2552.71 3547.69C2541.06 3342 2394.77 1821.4 2387.42 1803.03M1968.71 223.662C1973.6 237.129 1987.92 264.446 1994.42 275.083C2034.82 341.196 2460.88 513.826 2538.01 546.882M2387.42 1803.03C2380.08 1784.67 2343.35 2096.87 2347.02 2210.73C2347.34 2220.49 2361.71 2207.06 2361.71 2214.41C2361.71 2221.75 2369.06 2357.65 2365.39 2361.32C2361.71 2365 2361.71 2365 2361.71 2372.34C2361.71 2379.69 2369.06 2409.07 2376.4 2412.75C2383.75 2416.42 2391.1 2409.07 2394.77 2409.07C2398.44 2409.07 2442.52 2809.42 2438.84 2809.42C2435.17 2809.42 2424.15 2831.46 2424.15 2835.14C2424.15 2838.81 2435.17 3455.87 2435.17 3466.88C2435.17 3477.9 2457.21 3687.26 2435.17 3779.09C2413.13 3870.91 2420.84 3919.24 2361.71 3944.37C2067.88 4069.25 1572.03 4105.98 1520.6 4102.31C1469.18 4098.63 1505.91 4091.29 1483.88 4087.61C1461.84 4083.94 784.741 4039.42 650.114 3940.7C595.019 3900.29 569.717 3731.34 576.655 3668.9C580.327 3635.84 595.019 2868.19 595.019 2838.81C595.019 2809.42 576.655 2827.79 580.327 2802.08C584 2776.37 613.384 2420.09 628.076 2412.75C642.768 2405.4 642.768 2405.4 646.441 2394.38C650.114 2383.36 650.114 2221.75 657.46 2218.08C664.806 2214.41 664.806 2221.75 664.806 2192.37C664.806 2162.98 657.46 1983.01 653.787 1960.97C650.114 1938.93 631.749 1836.09 628.076 1832.42M2387.42 1803.03C2418.03 1483.49 2491 800.316 2538.01 624.014M628.076 1832.42C619.506 1653.67 578.124 1160.27 481.158 616.668" stroke="black" stroke-width="7.34592"/>
<path d="M2083.02 252.061C2071.5 245.408 2060.02 241.915 2051 241.373C2041.49 240.802 2037.08 243.487 2035.67 245.928C2034.26 248.369 2034.14 253.529 2039.39 261.482C2044.37 269.025 2053.13 277.216 2064.66 283.87C2076.18 290.523 2087.66 294.016 2096.68 294.558C2106.19 295.129 2110.6 292.444 2112.01 290.004C2113.42 287.563 2113.54 282.402 2108.29 274.449C2103.31 266.905 2094.55 258.714 2083.02 252.061Z" fill="#A9977F" stroke="#2E2E30" stroke-width="14.6918"/>
<path d="M933.387 252.061C944.911 245.408 956.385 241.915 965.409 241.373C974.922 240.802 979.331 243.487 980.74 245.928C982.149 248.369 982.269 253.529 977.018 261.482C972.038 269.025 963.275 277.216 951.752 283.87C940.228 290.523 928.753 294.016 919.73 294.558C910.217 295.129 905.808 292.444 904.399 290.004C902.989 287.563 902.869 282.402 908.12 274.449C913.1 266.905 921.863 258.714 933.387 252.061Z" fill="#A9977F"/>
<path d="M933.387 252.061C944.911 245.408 956.385 241.915 965.409 241.373C974.922 240.802 979.331 243.487 980.74 245.928C982.149 248.369 982.269 253.529 977.018 261.482C972.038 269.025 963.275 277.216 951.752 283.87C940.228 290.523 928.753 294.016 919.73 294.558C910.217 295.129 905.808 292.444 904.399 290.004C902.989 287.563 902.869 282.402 908.12 274.449C913.1 266.905 921.863 258.714 933.387 252.061Z" stroke="black" stroke-width="14.6918"/>
<path d="M933.387 252.061C944.911 245.408 956.385 241.915 965.409 241.373C974.922 240.802 979.331 243.487 980.74 245.928C982.149 248.369 982.269 253.529 977.018 261.482C972.038 269.025 963.275 277.216 951.752 283.87C940.228 290.523 928.753 294.016 919.73 294.558C910.217 295.129 905.808 292.444 904.399 290.004C902.989 287.563 902.869 282.402 908.12 274.449C913.1 266.905 921.863 258.714 933.387 252.061Z" stroke="#2E2E30" stroke-width="14.6918"/>
<circle cx="2082.57" cy="1373.3" r="44.0755" fill="#D9D9D9"/>
<circle cx="2082.57" cy="1373.3" r="44.0755" fill="#A9977F"/>
<circle cx="2082.57" cy="1373.3" r="44.0755" stroke="#2E2E30" stroke-width="14.6918"/>
<circle cx="936.603" cy="1373.3" r="44.0755" fill="#D9D9D9"/>
<circle cx="936.603" cy="1373.3" r="44.0755" fill="#A9977F"/>
<circle cx="936.603" cy="1373.3" r="44.0755" stroke="#2E2E30" stroke-width="14.6918"/>
<circle cx="1561.01" cy="1792.02" r="66.1133" fill="#D9D9D9"/>
<circle cx="1561.01" cy="1792.02" r="66.1133" fill="#A9977F"/>
<circle cx="1561.01" cy="1792.02" r="66.1133" stroke="#2E2E30" stroke-width="14.6918"/>
<circle cx="1561.01" cy="1417.37" r="66.1133" fill="#A9977F" stroke="#2E2E30" stroke-width="14.6918"/>
<path d="M1923.23 886.975L2031.08 764.165H1764.21V1051.51L1923.23 886.975Z" fill="#494635"/>
<path d="M1913.61 546.882C1943 550.555 2163.93 563.755 2163.37 568.92C2152.35 671.763 1645.49 1193.32 1480.2 1303.51" stroke="black" stroke-width="7.34592"/>
</g>
<defs>
<clipPath id="clip0_515_42">
<rect width="3023" height="2052" fill="white"/>
</clipPath>
</defs>
</svg>
