<svg width="5747" height="3902" viewBox="0 0 5747 3902" fill="none" xmlns="http://www.w3.org/2000/svg">
<path d="M2215.24 188.042L2236.13 83.5758L2375.42 48.7537L2479.88 34.8249L2598.28 20.8961L2744.53 13.9317L2862.93 6.96729H2981.32L3162.4 20.8961L3343.47 48.7537L3489.72 76.6113L3510.62 97.5046L3524.54 181.077L3545.44 208.935L3573.3 250.721L3629.01 320.366L3698.65 396.974L3733.48 424.832L3768.3 417.867L3830.98 445.725L4046.87 543.227L4214.02 619.835L4443.85 731.266L4708.49 856.625L4903.5 947.162L4924.39 1030.73L4952.25 1142.17L4994.03 1323.24L5028.86 1462.53C5049.75 1557.71 5091.54 1749.46 5091.54 1755.03C5091.54 1760.6 5133.32 1943.07 5154.22 2033.61L5230.82 2367.9L5293.5 2667.37L5377.08 3022.56L5446.72 3349.88L5509.4 3628.46L5516.36 3698.1L5530.29 3851.32L5551.19 4122.93L5572.08 4394.54L5586.01 4631.33L5606.9 4840.27L5620.83 5042.23L5641.72 5299.92L5655.65 5508.85L5669.58 5710.82L5683.51 5905.82L5690.47 6045.11L5711.37 6267.97V6358.51L5725.3 6504.76L5732.26 6581.37L5739.23 6720.65V6755.48L5732.26 6762.44L5634.76 6776.37L5544.22 6790.3L5453.68 6804.23L5377.08 6811.19L5258.68 6818.16H5182.07H5091.54L5021.89 6811.19L4973.14 6804.23L4910.46 6790.3L4875.64 6769.41L4854.75 6748.51L4847.78 6720.65L4840.82 6616.19L4819.92 6379.4L4785.1 5968.5L4750.28 5592.42L4715.46 5216.34L4680.64 4854.19L4659.74 4631.33L4638.85 4443.29L4624.92 4276.15L4604.03 4081.14L4555.28 3600.6L4534.38 3440.42L4527.42 3426.49L4506.53 3544.89L4492.6 3670.24L4478.67 3795.6L4464.74 3948.82L4457.77 4067.22V4143.82V4199.54L4485.63 4192.58L4492.6 4310.97V4415.44V4471.15L4485.63 4492.04L4492.6 4533.83L4506.53 4568.65L4520.45 4575.62L4548.31 4568.65L4562.24 4652.23L4576.17 4798.48L4604.03 5021.34L4624.92 5216.34L4631.88 5327.77L4610.99 5348.67L4604.03 5376.52L4610.99 5571.53V5843.14L4617.96 6121.72L4624.92 6358.51V6560.47V6616.19L4631.88 6706.73L4638.85 6804.23L4645.81 6887.8V6978.34L4638.85 7068.88L4624.92 7173.34L4604.03 7263.88L4590.1 7333.52L4569.21 7403.17L4548.31 7437.99L4520.45 7458.88L4436.88 7500.67L4311.52 7542.45L4179.2 7584.24L4039.91 7619.06L3844.91 7660.85L3677.76 7695.67L3434.01 7730.49L3252.93 7751.39L3106.68 7765.32L3009.18 7772.28L2890.78 7779.24L2842.03 7772.28L2835.07 7751.39H2814.18L2688.82 7737.46L2577.39 7730.49L2375.42 7709.6L2145.59 7681.74L1978.45 7660.85L1790.41 7632.99L1644.15 7605.13L1518.8 7577.28L1407.36 7549.42L1268.08 7493.7L1205.4 7444.95L1163.61 7347.45L1135.75 7263.88L1121.82 7194.23L1100.93 7075.84V7013.16V6901.73L1107.9 6832.08V6651.01L1114.86 6393.33L1121.82 6288.86V6017.25L1128.79 5759.57L1135.75 5460.1V5383.49L1128.79 5355.63L1107.9 5334.74V5306.88L1121.82 5153.66L1128.79 5084.02L1156.65 4833.3L1170.58 4700.98L1191.47 4575.62L1226.29 4561.69L1233.25 4533.83L1240.22 4450.26V4352.76L1247.18 4234.36L1254.15 4206.5H1261.11L1268.08 4192.58V4053.29L1261.11 3927.93L1254.15 3788.64L1247.18 3705.07L1219.33 3558.81L1198.43 3489.17L1170.58 3753.82L1121.82 4255.25L1087 4687.05L1052.18 5063.13L1024.32 5362.6L1010.39 5536.71L989.501 5738.67L954.679 6149.57L926.821 6449.04L898.963 6685.83L885.035 6741.55L850.213 6776.37L794.497 6797.26L710.924 6811.19H599.494H453.241L286.096 6797.26L174.665 6790.3L77.1636 6776.37L7.51953 6762.44L21.4483 6567.44L63.2348 6010.29L98.0568 5536.71L125.914 5160.63L139.843 4916.87L174.665 4450.26L209.487 4018.47L223.416 3795.6L237.345 3600.6L286.096 3363.81L355.74 3050.41L453.241 2639.51L536.814 2235.58L606.458 1908.25L676.102 1615.75L738.782 1337.17L829.319 940.198L1052.18 828.767L1393.44 668.586L1692.91 529.298L1957.55 417.867L1978.45 410.903L1992.38 431.796L2041.13 403.938L2215.24 188.042Z" fill="#4C4636"/>
<path d="M2215.24 188.042L2236.13 83.5758L2375.42 48.7537L2535.6 27.8605L2751.5 6.96729H2918.64L3071.86 13.9317L3162.4 20.8961L3329.54 48.7537L3496.69 83.5758L3503.65 97.5046L3524.54 181.077L2939.53 2047.54L2932.57 2054.5L2215.24 188.042Z" fill="#B6A18C"/>
<path d="M3106.68 1016.81L2904.71 661.622L2716.67 1002.88L2800.25 1149.13L2674.89 1371.99L2939.53 2054.5L3141.5 1399.85L3023.11 1149.13L3106.68 1016.81Z" fill="#4C4734"/>
<path d="M2089.88 348.223L2215.24 188.042L2375.42 591.977L2542.56 1023.77L2674.89 1378.96L2779.35 1643.6L2904.71 1977.89L2932.57 2061.47L3225.08 1128.24L3524.54 188.042L3608.12 292.508L3691.69 396.974L3712.58 438.76L3754.37 529.298L3782.23 598.942L3810.09 668.586L3858.84 793.945L3893.66 926.269L3907.59 995.913L3837.94 1016.81L3740.44 1023.77H3684.73L3649.9 1037.7L3726.51 1044.66L3865.8 1058.59L4019.02 1065.56L4109.55 1079.49L4081.7 1149.13L4025.98 1239.67L3879.73 1427.71L3698.66 1629.67L3559.37 1782.89L3315.61 2033.61L3134.54 2200.76L2946.5 2374.87L2828.1 2465.4H2814.18L2835.07 2395.76L2890.78 2214.68L2730.6 2103.25L2549.53 1963.97L2389.35 1831.64L2159.52 1629.67L2055.06 1532.17L1992.38 1469.49L1901.84 1378.96L1846.12 1316.28L1776.48 1232.7L1734.69 1170.02L1699.87 1107.34L1692.91 1072.52L1776.48 1065.56L1908.8 1058.59H2075.95L2166.49 1051.63L2048.09 1030.73L1922.73 1009.84L1867.02 995.913V961.091L1880.95 891.447L1901.84 821.803L1943.62 675.55L1992.38 543.227L2034.16 410.903L2089.88 348.223Z" fill="#494635"/>
<path d="M2716.67 1009.07L2800.25 1148.36M2800.25 1148.36H3023.11M2800.25 1148.36L2674.89 1378.18M3023.11 1148.36L3141.5 1406.04M3023.11 1148.36L3106.68 1016.03" stroke="black" stroke-width="13.9288"/>
<path d="M2904.71 660.849C2953.46 591.205 3517.58 88.1369 3496.69 82.804C2842.02 -84.2978 2257.02 75.8396 2236.13 82.804C2445.06 268.522 2869.89 626.026 2904.71 660.849ZM2904.71 660.849C2855.96 730.493 2730.6 988.176 2605.24 1197.11M2904.71 660.849L3211.15 1197.11" stroke="black" stroke-width="13.9288"/>
<path d="M4513.49 4574.84C4258.13 4618.95 3759.9 4704.38 3748.76 4721.1C3734.83 4741.99 3832.33 5494.15 3853.23 5522C3874.12 5549.86 3901.98 5584.68 3936.8 5577.72C3971.62 5570.75 4541.35 5445.4 4604.03 5375.75" stroke="black" stroke-width="13.9288"/>
<path d="M1219.33 4567.88C1474.69 4611.99 1988.2 4704.38 1999.34 4721.1C2013.27 4741.99 1915.77 5494.14 1894.87 5522C1873.98 5549.86 1846.12 5584.68 1811.3 5577.72C1776.48 5570.75 1198.43 5438.43 1135.75 5368.79" stroke="black" stroke-width="13.9288"/>
<path d="M3317.99 2652.67C3317.99 2638.74 3304.06 2652.67 3262.27 2583.02C3253.92 2569.1 3269.24 2165.16 3283.17 2165.16C3297.09 2165.16 4522.83 2158.2 4550.69 2158.2C4550.69 2304.45 4550.69 2602.52 4550.69 2624.81C4550.69 2652.67 4488.01 2651.81 4488.01 2680.53M4139.79 3813.05C4031.11 3813.69 3892.48 3813.28 3770.67 3811.56C3645.3 3809.79 3537.75 3806.63 3499.06 3801.8C3387.63 3787.87 3324.69 3719.97 3317.99 3676.44C3304.06 3585.9 3317.99 2666.6 3317.99 2652.67M3317.99 2652.67C3482.49 2680.09 3599.5 2655.69 3784.6 2705.27M4488.01 2680.53C4488.01 2750.17 4453.19 3662.51 4453.19 3704.29C4453.19 3760.01 4362.65 3801.8 4327.83 3808.76C4316.84 3810.96 4241.41 3812.46 4139.79 3813.05M3784.6 2705.27C3834.59 2718.66 3889.55 2737.44 3951.75 2764.1C3951.75 2764.1 3954.54 2766.68 3958.71 2764.1C4008.1 2733.53 4079.71 2714.07 4153.72 2701.72C4298.89 2677.47 4453.28 2680.53 4467.11 2680.53C4483.83 2680.53 4488.01 2680.53 4488.01 2680.53M4153.72 2701.72L4139.79 3813.05M3784.6 2705.27L3770.67 3811.56" stroke="black" stroke-width="13.9288"/>
<path d="M2417.2 2652.67C2417.2 2638.74 2431.13 2652.67 2472.92 2583.02C2481.28 2569.1 2465.95 2165.16 2452.03 2165.16C2438.1 2165.16 1212.36 2158.2 1184.5 2158.2C1184.5 2304.45 1184.5 2602.52 1184.5 2624.81C1184.5 2652.67 1247.18 2651.81 1247.18 2680.53M1595.4 3813.05C1704.08 3813.69 1842.71 3813.28 1964.52 3811.56C2089.89 3809.79 2197.44 3806.63 2236.13 3801.8C2347.56 3787.87 2410.51 3719.97 2417.2 3676.44C2431.13 3585.9 2417.2 2666.6 2417.2 2652.67M2417.2 2652.67C2252.7 2680.09 2135.69 2655.69 1950.59 2705.27M1247.18 2680.53C1247.18 2750.17 1282.01 3662.51 1282.01 3704.29C1282.01 3760.01 1372.54 3801.8 1407.36 3808.76C1418.35 3810.96 1493.78 3812.46 1595.4 3813.05M1950.59 2705.27C1900.6 2718.66 1845.64 2737.44 1783.44 2764.1C1783.44 2764.1 1780.65 2766.68 1776.48 2764.1C1727.1 2733.53 1655.48 2714.07 1581.48 2701.72C1436.3 2677.47 1281.92 2680.53 1268.08 2680.53C1251.36 2680.53 1247.18 2680.53 1247.18 2680.53M1581.48 2701.72L1595.4 3813.05M1950.59 2705.27L1964.52 3811.56" stroke="black" stroke-width="13.9288"/>
<rect x="1463.08" y="2255.7" width="626.797" height="153.217" fill="#352A28" stroke="#8D7C72" stroke-width="27.8576"/>
<path d="M975.572 5884.15C745.747 6002.55 195.559 5912.01 70.1992 5898.08" stroke="black" stroke-opacity="0.5" stroke-width="27.8576"/>
<path d="M4778.14 5891.12C4931.35 5946.83 5133.32 5974.69 5676.54 5898.08" stroke="black" stroke-opacity="0.5" stroke-width="27.8576"/>
<path d="M2215.24 180.304C2222.2 194.233 2918.64 1998.01 2939.53 2074.62" stroke="black" stroke-width="13.9288"/>
<path d="M3524.54 180.304C3510.61 215.126 2758.46 2617.85 2758.46 2652.67C2758.46 2680.53 2800.25 6062.91 2821.14 7750.61" stroke="black" stroke-width="13.9288"/>
<path d="M1992.38 431.023C1985.41 431.023 1992.38 410.13 1971.48 410.13C1950.59 410.13 843.248 918.531 829.319 946.389C815.391 974.246 244.309 3551.08 237.345 3606.79C230.381 3662.51 21.4483 6636.31 7.51953 6761.67C118.95 6803.45 683.067 6824.35 773.604 6803.45C864.141 6782.56 871.106 6761.67 891.999 6719.88C912.892 6678.09 1191.47 3467.5 1198.43 3474.47M1992.38 431.023C1999.34 431.023 2020.23 417.094 2041.13 403.165M1992.38 431.023C1987.73 451.916 1989.09 468.335 1964.52 500.667C1832.19 674.777 1191.47 904.602 919.857 1029.96M2041.13 403.165C2062.02 389.236 2208.27 201.197 2215.24 187.269C2222.2 173.34 2229.16 90.5406 2236.13 83.5762M2041.13 403.165C1980.77 558.704 1867.02 894.697 1867.02 995.14C1867.02 1009.07 2118.47 1038.21 2194.34 1050.85C2222.2 1055.5 1691.09 1056.28 1692.91 1071.75C1720.76 1308.54 2612.21 2032.84 2883.82 2213.91M3740.44 424.058C3726.51 424.058 3702.7 407.212 3691.69 396.201C3663.83 368.343 3559.37 242.984 3531.51 194.233C3512.9 161.67 3517.58 100.291 3496.69 83.5762M3691.69 396.201C3756.69 521.56 3879.73 800.136 3907.59 995.14C3910.7 1016.94 3580.26 1029.96 3635.97 1036.93C3691.69 1043.89 4110.6 1068.92 4109.55 1078.71C4088.66 1273.72 3127.57 2262.66 2814.17 2471.59M3740.44 424.058C3754.37 424.058 3754.37 410.13 3775.26 417.094C3796.16 424.058 4882.6 932.46 4903.5 946.389C4924.39 960.318 5502.44 3599.83 5509.4 3627.68C5516.36 3655.54 5748.91 6759.87 5739.23 6761.67C5439.76 6817.38 4855.65 6865.91 4847.78 6726.85C4825.71 6336.84 4548.31 3453.57 4534.38 3418.75M3740.44 424.058C3749.73 449.594 3776.87 501.39 3789.19 521.56C3865.8 646.919 4673.67 974.246 4819.92 1036.93M4534.38 3418.75C4520.45 3383.93 4450.81 3975.91 4457.77 4191.8C4458.37 4210.31 4485.63 4184.84 4485.63 4198.77C4485.63 4212.7 4499.56 4470.38 4492.6 4477.34C4485.63 4484.31 4485.63 4484.31 4485.63 4498.24C4485.63 4512.16 4499.56 4567.88 4513.49 4574.84C4527.42 4581.81 4541.35 4567.88 4548.31 4567.88C4555.28 4567.88 4638.85 5327 4631.88 5327C4624.92 5327 4604.03 5368.79 4604.03 5375.75C4604.03 5382.72 4624.92 6552.74 4624.92 6573.63C4624.92 6594.52 4666.71 6991.49 4624.92 7165.6C4583.13 7339.71 4597.75 7431.35 4485.63 7479C3928.48 7715.79 2988.29 7785.44 2890.78 7778.47C2793.28 7771.51 2862.93 7757.58 2821.14 7750.61C2779.35 7743.65 1495.49 7659.24 1240.22 7472.04C1135.75 7395.43 1087.78 7075.07 1100.93 6956.67C1107.9 6893.99 1135.75 5438.43 1135.75 5382.72C1135.75 5327 1100.93 5361.82 1107.9 5313.07C1114.86 5264.32 1170.58 4588.77 1198.43 4574.84C1226.29 4560.92 1226.29 4560.92 1233.25 4540.02C1240.22 4519.13 1240.22 4212.7 1254.15 4205.73C1268.08 4198.77 1268.08 4212.7 1268.08 4156.98C1268.08 4101.26 1254.15 3760.01 1247.18 3718.22C1240.22 3676.44 1205.4 3481.43 1198.43 3474.47M4534.38 3418.75C4592.42 2812.85 4730.78 1517.47 4819.92 1183.18M1198.43 3474.47C1182.18 3135.53 1103.72 2199.98 919.857 1169.25" stroke="black" stroke-width="13.9288"/>
<path d="M1240.22 4498.24C2633.1 4888.24 3893.66 4630.56 4492.6 4477.34" stroke="black" stroke-width="13.9288"/>
<path d="M1254.15 4205.73C2647.03 4595.74 3865.8 4351.98 4464.74 4198.77" stroke="black" stroke-width="13.9288"/>
<path d="M3399.18 4721.1C3392.22 4605.02 3378.29 4367.31 3378.29 4345.02C3417.76 4342.7 3498.08 4338.05 3503.65 4338.05C3510.61 4338.05 3524.54 4693.24 3524.54 4707.17C3524.54 4718.31 3440.97 4721.1 3399.18 4721.1Z" fill="#4C4636" stroke="black" stroke-width="13.9288"/>
<path d="M2981.32 4351.98V4755.92H2730.6V4351.98H2981.32Z" fill="#CFB75D" stroke="#333027" stroke-width="27.8576"/>
<path d="M2912.37 4428.67V4680.78H2799.55V4428.67H2912.37Z" fill="#4C4636" stroke="#333027" stroke-width="12.5359"/>
<path d="M1347.97 5210.79C1343.52 5233.84 1332.48 5252.82 1318.88 5265.02C1305.28 5277.21 1289.83 5282.14 1275.48 5279.37C1261.14 5276.6 1248.63 5266.27 1240.55 5249.9C1232.46 5233.51 1229.29 5211.79 1233.74 5188.74C1238.18 5165.69 1249.22 5146.71 1262.82 5134.52C1276.42 5122.33 1291.87 5117.39 1306.22 5120.16C1320.57 5122.93 1333.07 5133.26 1341.15 5149.64C1349.24 5166.02 1352.42 5187.75 1347.97 5210.79Z" fill="#D9D9D9"/>
<path d="M1347.97 5210.79C1343.52 5233.84 1332.48 5252.82 1318.88 5265.02C1305.28 5277.21 1289.83 5282.14 1275.48 5279.37C1261.14 5276.6 1248.63 5266.27 1240.55 5249.9C1232.46 5233.51 1229.29 5211.79 1233.74 5188.74C1238.18 5165.69 1249.22 5146.71 1262.82 5134.52C1276.42 5122.33 1291.87 5117.39 1306.22 5120.16C1320.57 5122.93 1333.07 5133.26 1341.15 5149.64C1349.24 5166.02 1352.42 5187.75 1347.97 5210.79Z" fill="#A9977F"/>
<path d="M1347.97 5210.79C1343.52 5233.84 1332.48 5252.82 1318.88 5265.02C1305.28 5277.21 1289.83 5282.14 1275.48 5279.37C1261.14 5276.6 1248.63 5266.27 1240.55 5249.9C1232.46 5233.51 1229.29 5211.79 1233.74 5188.74C1238.18 5165.69 1249.22 5146.71 1262.82 5134.52C1276.42 5122.33 1291.87 5117.39 1306.22 5120.16C1320.57 5122.93 1333.07 5133.26 1341.15 5149.64C1349.24 5166.02 1352.42 5187.75 1347.97 5210.79Z" stroke="#2E2E30" stroke-width="27.8576"/>
<path d="M4405.88 5210.79C4410.33 5233.84 4421.37 5252.82 4434.97 5265.02C4448.57 5277.21 4464.02 5282.14 4478.37 5279.37C4492.72 5276.6 4505.22 5266.27 4513.3 5249.9C4521.39 5233.51 4524.57 5211.79 4520.12 5188.74C4515.67 5165.69 4504.63 5146.71 4491.03 5134.52C4477.43 5122.33 4461.98 5117.39 4447.63 5120.16C4433.29 5122.93 4420.78 5133.26 4412.7 5149.64C4404.61 5166.02 4401.44 5187.75 4405.88 5210.79Z" fill="#D9D9D9"/>
<path d="M4405.88 5210.79C4410.33 5233.84 4421.37 5252.82 4434.97 5265.02C4448.57 5277.21 4464.02 5282.14 4478.37 5279.37C4492.72 5276.6 4505.22 5266.27 4513.3 5249.9C4521.39 5233.51 4524.57 5211.79 4520.12 5188.74C4515.67 5165.69 4504.63 5146.71 4491.03 5134.52C4477.43 5122.33 4461.98 5117.39 4447.63 5120.16C4433.29 5122.93 4420.78 5133.26 4412.7 5149.64C4404.61 5166.02 4401.44 5187.75 4405.88 5210.79Z" fill="#A9977F"/>
<path d="M4405.88 5210.79C4410.33 5233.84 4421.37 5252.82 4434.97 5265.02C4448.57 5277.21 4464.02 5282.14 4478.37 5279.37C4492.72 5276.6 4505.22 5266.27 4513.3 5249.9C4521.39 5233.51 4524.57 5211.79 4520.12 5188.74C4515.67 5165.69 4504.63 5146.71 4491.03 5134.52C4477.43 5122.33 4461.98 5117.39 4447.63 5120.16C4433.29 5122.93 4420.78 5133.26 4412.7 5149.64C4404.61 5166.02 4401.44 5187.75 4405.88 5210.79Z" stroke="#2E2E30" stroke-width="27.8576"/>
<path d="M3957.2 477.907C3935.35 465.292 3913.59 458.669 3896.49 457.642C3878.45 456.56 3870.09 461.65 3867.42 466.278C3864.74 470.906 3864.51 480.691 3874.47 495.771C3883.92 510.075 3900.53 525.606 3922.38 538.221C3944.23 550.837 3965.99 557.459 3983.1 558.486C4001.14 559.569 4009.5 554.479 4012.17 549.851C4014.84 545.223 4015.07 535.438 4005.11 520.357C3995.67 506.054 3979.05 490.523 3957.2 477.907Z" fill="#A9977F" stroke="#2E2E30" stroke-width="27.8576"/>
<path d="M1777.34 477.907C1799.19 465.292 1820.95 458.669 1838.06 457.642C1856.1 456.56 1864.46 461.65 1867.13 466.278C1869.8 470.906 1870.03 480.691 1860.07 495.771C1850.63 510.075 1834.02 525.606 1812.17 538.221C1790.31 550.837 1768.56 557.459 1751.45 558.486C1733.41 559.569 1725.05 554.479 1722.38 549.851C1719.71 545.223 1719.48 535.438 1729.43 520.357C1738.88 506.054 1755.49 490.523 1777.34 477.907Z" fill="#A9977F"/>
<path d="M1777.34 477.907C1799.19 465.292 1820.95 458.669 1838.06 457.642C1856.1 456.56 1864.46 461.65 1867.13 466.278C1869.8 470.906 1870.03 480.691 1860.07 495.771C1850.63 510.075 1834.02 525.606 1812.17 538.221C1790.31 550.837 1768.56 557.459 1751.45 558.486C1733.41 559.569 1725.05 554.479 1722.38 549.851C1719.71 545.223 1719.48 535.438 1729.43 520.357C1738.88 506.054 1755.49 490.523 1777.34 477.907Z" stroke="black" stroke-width="27.8576"/>
<path d="M1777.34 477.907C1799.19 465.292 1820.95 458.669 1838.06 457.642C1856.1 456.56 1864.46 461.65 1867.13 466.278C1869.8 470.906 1870.03 480.691 1860.07 495.771C1850.63 510.075 1834.02 525.606 1812.17 538.221C1790.31 550.837 1768.56 557.459 1751.45 558.486C1733.41 559.569 1725.05 554.479 1722.38 549.851C1719.71 545.223 1719.48 535.438 1729.43 520.357C1738.88 506.054 1755.49 490.523 1777.34 477.907Z" stroke="#2E2E30" stroke-width="27.8576"/>
<circle cx="3956.34" cy="2603.92" r="83.5729" fill="#D9D9D9"/>
<circle cx="3956.34" cy="2603.92" r="83.5729" fill="#A9977F"/>
<circle cx="3956.34" cy="2603.92" r="83.5729" stroke="#2E2E30" stroke-width="27.8576"/>
<circle cx="1783.44" cy="2603.92" r="83.5729" fill="#D9D9D9"/>
<circle cx="1783.44" cy="2603.92" r="83.5729" fill="#A9977F"/>
<circle cx="1783.44" cy="2603.92" r="83.5729" stroke="#2E2E30" stroke-width="27.8576"/>
<circle cx="2967.39" cy="4108.23" r="125.359" fill="#D9D9D9"/>
<circle cx="2967.39" cy="4108.23" r="125.359" fill="#A9977F"/>
<circle cx="2967.39" cy="4108.23" r="125.359" stroke="#2E2E30" stroke-width="27.8576"/>
<circle cx="2967.39" cy="3397.86" r="125.359" fill="#D9D9D9"/>
<circle cx="2967.39" cy="3397.86" r="125.359" fill="#A9977F"/>
<circle cx="2967.39" cy="3397.86" r="125.359" stroke="#2E2E30" stroke-width="27.8576"/>
<circle cx="2967.39" cy="2687.49" r="125.359" fill="#A9977F" stroke="#2E2E30" stroke-width="27.8576"/>
<path d="M3654.21 1681.79L3858.71 1448.92H3352.68V1993.76L3654.21 1681.79Z" fill="#494635"/>
<path d="M3635.98 1036.93C3691.69 1043.89 4110.6 1068.92 4109.56 1078.71C4088.66 1273.72 3127.57 2262.66 2814.18 2471.59" stroke="black" stroke-width="13.9288"/>
</svg>
